Coordinates
version=1
nRows=10
nColumns=40
inDegrees=yes

Units are S.I. units (second, meters, Newtons, ...)
If the header above contains a line with 'inDegrees', this indicates whether rotational values are in degrees (yes) or radians (no).

endheader
time	pelvis_tilt	pelvis_list	pelvis_rotation	pelvis_tx	pelvis_ty	pelvis_tz	hip_flexion_r	hip_adduction_r	hip_rotation_r	knee_angle_r	knee_angle_r_beta	ankle_angle_r	subtalar_angle_r	mtp_angle_r	hip_flexion_l	hip_adduction_l	hip_rotation_l	knee_angle_l	knee_angle_l_beta	ankle_angle_l	subtalar_angle_l	mtp_angle_l	lumbar_extension	lumbar_bending	lumbar_rotation	arm_flex_r	arm_add_r	arm_rot_r	elbow_flex_r	pro_sup_r	wrist_flex_r	wrist_dev_r	arm_flex_l	arm_add_l	arm_rot_l	elbow_flex_l	pro_sup_l	wrist_flex_l	wrist_dev_l
     10.34999999999999964473	     -5.35657457364437483704	      0.43316734593169697876	   -175.50982485419851286679	      0.24360611667593468077	      0.68139769024921159613	     -0.92972978074396661619	     46.52795478970843845445	    -44.80650042485674333648	     -8.86834432093672120345	     69.24484997457682311506	      1.20855062210587727023	     13.75403773711777333233	      0.00000000000000000000	      0.00000000000000000000	     53.75795181261056399080	    -46.85907446058580205772	     -5.06301540298864516387	     69.51140757863200292377	      1.21320292994286771382	      3.39420231163152097409	      0.00000000000000000000	      0.00000000000000000000	    -65.90410288317980302963	      4.02289782447632049411	     -7.06916274065710492636	     47.35644626056955530657	      4.24178045598460240484	     19.89852521650534811215	      5.66635989137235096536	     21.35853369728007322692	      0.00000000000000000000	      0.00000000000000000000	     51.46178069423726952891	    -10.56132419092550200901	     60.90963797170641669254	      5.74979987496575262185	     74.48714231714806999207	      0.00000000000000000000	      0.00000000000000000000
     10.35500000000000042633	     -5.41221293440806583419	      0.43734991054457017512	   -175.43042181339961871345	      0.24334946351390265851	      0.68267040784371768591	     -0.92987757193124365163	     46.14354417866881874488	    -44.82466988450360645402	     -9.19341329329444967300	     69.02614074419835787921	      1.20473342593127030753	     13.70179133856623465704	      0.00000000000000000000	      0.00000000000000000000	     53.49166193344755271255	    -46.76459621013518841437	     -5.15787443450351901220	     69.24960625210856335343	      1.20863363480894481228	      3.39142477108457507384	      0.00000000000000000000	      0.00000000000000000000	    -66.07100219534180496339	      4.09334441573794460822	     -7.18357912491391203957	     47.30138656045087941493	      4.19494110684319743143	     19.68970862568927060465	      6.03591535379524657401	     22.42931355609577082078	      0.00000000000000000000	      0.00000000000000000000	     51.41749012444157784785	    -10.58344270473746817629	     59.49916533371143856357	      5.83888499512636283129	     72.75649433256221243482	      0.00000000000000000000	      0.00000000000000000000
     10.35999999999999943157	     -5.28302143440785165751	      0.41867559595869918709	   -175.47905622980846374048	      0.24310404773836735703	      0.68352198494918658955	     -0.93025958459234447950	     46.19211852646203908535	    -44.72610001045293159905	     -9.17181815604998007530	     68.88643551739123438438	      1.20229510974124065292	     13.62452365205378868040	      0.00000000000000000000	      0.00000000000000000000	     53.34458275710774444178	    -46.74210050742756550335	     -5.35303757455077366956	     69.02034999026564321412	      1.20463235820897174300	      3.35588233312025607802	      0.00000000000000000000	      0.00000000000000000000	    -66.03649369118646461629	      4.04085298772467460537	     -7.12367351185635477862	     47.39634594087178953714	      4.22930612261413862996	     19.58449644765823904891	      5.72989184455015099218	     23.02834303592068465605	      0.00000000000000000000	      0.00000000000000000000	     51.44046047658007125847	    -10.44131979081750571936	     59.00798142379002797497	      5.66167791725917979306	     71.76997382558339211300	      0.00000000000000000000	      0.00000000000000000000
     10.36500000000000021316	     -5.08940392424401366611	      0.56340544789858193475	   -175.31927767159297104627	      0.24290601697448999108	      0.68410417441624660206	     -0.93015656173856653410	     46.03139376347174049897	    -44.70027998464350105223	     -9.57613374240906978230	     68.73867724075525131866	      1.19971624131687004677	     13.59011712330853072217	      0.00000000000000000000	      0.00000000000000000000	     53.67920765025457541242	    -46.63092951710694933354	     -5.05574842827731263384	     68.85794296285136795177	      1.20179782085221598109	      3.15217341941007678230	      0.00000000000000000000	      0.00000000000000000000	    -65.87217656812920552056	      4.22604368139594921416	     -6.93246988645175932220	     47.46196347534345250097	      4.20130817062763206593	     19.89937671554708487065	      5.62900968555370262436	     21.24509550584594919087	      0.00000000000000000000	      0.00000000000000000000	     51.58698622004180833756	    -10.69758014353311814659	     62.39585420856774788945	      5.92940607617530179851	     74.70855973550941087069	      0.00000000000000000000	      0.00000000000000000000
     10.36999999999999921840	     -5.20065598225478442629	      0.48457985186738528061	   -175.36600908601153037125	      0.24260640200846619874	      0.68557104029338200579	     -0.93047367414664705620	     45.72663367608705442535	    -44.68028572554800348371	     -9.70697416111566191432	     68.49943529188351476478	      1.19554068160017035183	     13.49106651953210089800	      0.00000000000000000000	      0.00000000000000000000	     53.12802557647965073784	    -46.59970181320971249761	     -5.42992959832696353573	     68.57499625682416422023	      1.19685946922436858841	      3.19112609047294215614	      0.00000000000000000000	      0.00000000000000000000	    -66.09776656675643380368	      4.13424180526365869781	     -7.06007135375714511838	     47.19419880149371948619	      4.09812750865508856890	     19.54442811511163213822	      6.33158043169244244552	     22.76155910481168476167	      0.00000000000000000000	      0.00000000000000000000	     51.53686727830029212782	    -10.68433695114215886690	     60.02423006994014542670	      6.01548229989670169005	     72.49741566416425087027	      0.00000000000000000000	      0.00000000000000000000
     10.37500000000000000000	     -4.96650350160779119335	      0.46904639519991497831	   -175.41723553113118327929	      0.24234531803224629298	      0.68616490226332738089	     -0.93087278923473737446	     45.93323170536355348759	    -44.57804766014234587601	     -9.62928719821085543629	     68.41600401122042285351	      1.19408453105344380951	     13.48737786844047548129	      0.00000000000000000000	      0.00000000000000000000	     53.13793523457345457928	    -46.55369552808635802421	     -5.55352194037657209691	     68.36181963806818373541	      1.19313883533880815691	      3.03730032337269406639	      0.00000000000000000000	      0.00000000000000000000	    -65.91137019837780997022	      4.04393909777430504704	     -7.01255865210240436625	     47.45729029801656650989	      4.16835941700862555592	     19.47183759710797446019	      5.72178452311908269934	     23.25036711459895499843	      0.00000000000000000000	      0.00000000000000000000	     51.54639062832855245233	    -10.44885327670029440128	     59.41582860846180125236	      5.69236290921881593619	     71.65503100295207161707	      0.00000000000000000000	      0.00000000000000000000
     10.38000000000000078160	     -5.09085328038074269585	      0.60543511939015548506	   -175.28227384411036382517	      0.24211955684066904793	      0.68759998343787354091	     -0.93074178792429640428	     45.26759634882449745419	    -44.53640524801073752315	    -10.24001840415333219880	     68.10943377797130438012	      1.18873387109463979350	     13.53718101640207649439	      0.00000000000000000000	      0.00000000000000000000	     53.00945932338868971101	    -46.51055391550006845591	     -5.40412286664217322851	     68.11638027194601363590	      1.18885511028596835281	      2.72849301541710476116	      0.00000000000000000000	      0.00000000000000000000	    -66.15498799247737338192	      4.28116506949624131551	     -7.18588968804007510727	     47.20519508026250576904	      4.13810740214278016680	     19.05362311319459678316	      6.98556813455134673063	     25.03594199631220718061	      0.00000000000000000000	      0.00000000000000000000	     51.28258264360243856572	    -10.87910776359600184549	     57.32320674305553609429	      6.35750680785751765001	     69.35425502202896552717	      0.00000000000000000000	      0.00000000000000000000
     10.38499999999999978684	     -4.72905427747324669241	      0.54097522363628858244	   -175.38951935389781056074	      0.24188153863154243650	      0.68783093773798098525	     -0.93119444294249853478	     45.79524297257373888215	    -44.43111597023631986758	     -9.91081662661295226258	     68.09502388994090438246	      1.18848237110366561353	     13.35609858605045907609	      0.00000000000000000000	      0.00000000000000000000	     53.10504532105635888684	    -46.43679326241508675821	     -5.55968071473382341452	     67.96536311197175450616	      1.18621936361740654142	      2.83730628423056208121	      0.00000000000000000000	      0.00000000000000000000	    -65.74899108852170570572	      4.07389604162586049796	     -7.04925613968533149034	     47.47903017688005888886	      4.36557222447216197736	     20.08533746490825322439	      6.14170211887451866772	     19.17859332981954523234	      0.00000000000000000000	      0.00000000000000000000	     51.73805341040733907221	    -10.73988479045403643397	     60.42173063960219536739	      5.67397840160374666851	     77.31648316569847168012	      0.00000000000000000000	      0.00000000000000000000
     10.39000000000000056843	     -4.64585004218398456288	      0.58651488865956624696	   -175.39766852372963512607	      0.24164390193263515783	      0.68877051388135956955	     -0.93140980987821542225	     45.68608297414752428267	    -44.33584664054734503225	    -10.07208543271279133080	     67.92905378595197873892	      1.18558564632918139736	     13.27485368795553632992	      0.00000000000000000000	      0.00000000000000000000	     53.04166411109078893560	    -46.41516712720675030823	     -5.57907982761318788079	     67.76358724586434334469	      1.18269771040276916452	      2.70825857050661644720	      0.00000000000000000000	      0.00000000000000000000	    -65.72437253941257040424	      4.08069925227210106300	     -6.87621404536107050376	     47.57047987561691826386	      4.25343589181056991322	     19.94498180699878986388	      5.74980300691470702645	     20.35053519601078164669	      0.00000000000000000000	      0.00000000000000000000	     51.71296838801389128548	    -10.48543083507648354669	     59.36194635026878074768	      5.64489902746331395633	     75.30329136157735092638	      0.00000000000000000000	      0.00000000000000000000
     10.39499999999999957367	     -4.57252693569519497174	      0.65460765218559779921	   -175.34184899799222989714	      0.24139409741793874109	      0.68972223452765724083	     -0.93148268493692421011	     45.48331183879183470253	    -44.28409225868075793642	    -10.35374776356431247848	     67.74446244991564469728	      1.18236391974469223776	     13.17000052128029352616	      0.00000000000000000000	      0.00000000000000000000	     53.02873476320340273560	    -46.34528627458608696088	     -5.50233717741932792933	     67.56592868002260843241	      1.17924791763406067169	      2.64405654723536898132	      0.00000000000000000000	      0.00000000000000000000	    -65.68284553476577514175	      4.15359773962912104395	     -6.77788533597563169764	     47.49567836955181121539	      4.14832634216251516790	     20.27803501013473308490	      5.74900039829232145649	     20.65565050020271087305	      0.00000000000000000000	      0.00000000000000000000	     51.74258447353950174374	    -10.68099885615230526525	     61.52847677053347297260	      5.87288752067831776316	     75.56552931700232988987	      0.00000000000000000000	      0.00000000000000000000
